<?xml version="1.0" encoding="UTF-8" standalone="no"?>
<!-- Generator: Adobe Illustrator 16.0.0, SVG Export Plug-In . SVG Version: 6.00 Build 0)  -->

<svg
   xmlns:dc="http://purl.org/dc/elements/1.1/"
   xmlns:cc="http://creativecommons.org/ns#"
   xmlns:rdf="http://www.w3.org/1999/02/22-rdf-syntax-ns#"
   xmlns:svg="http://www.w3.org/2000/svg"
   xmlns="http://www.w3.org/2000/svg"
   xmlns:sodipodi="http://sodipodi.sourceforge.net/DTD/sodipodi-0.dtd"
   xmlns:inkscape="http://www.inkscape.org/namespaces/inkscape"
   version="1.1"
   id="Calque_1"
   x="0px"
   y="0px"
   width="314.25299"
   height="336.72498"
   viewBox="0 0 314.253 336.72499"
   enable-background="new 0 0 470.137 493.067"
   xml:space="preserve"
   inkscape:version="0.48.4 r9939"
   sodipodi:docname="LOGO SIUAPS NOIR.svg"><metadata
     id="metadata4562"><rdf:RDF><cc:Work
         rdf:about=""><dc:format>image/svg+xml</dc:format><dc:type
           rdf:resource="http://purl.org/dc/dcmitype/StillImage" /><dc:title></dc:title></cc:Work></rdf:RDF></metadata><defs
     id="defs4560" /><sodipodi:namedview
     pagecolor="#000000"
     bordercolor="#666666"
     borderopacity="1"
     objecttolerance="10"
     gridtolerance="10"
     guidetolerance="10"
     inkscape:pageopacity="0.60392157"
     inkscape:pageshadow="2"
     inkscape:window-width="1916"
     inkscape:window-height="1041"
     id="namedview4558"
     showgrid="false"
     inkscape:zoom="1.7320162"
     inkscape:cx="157.5125"
     inkscape:cy="168.8235"
     inkscape:window-x="0"
     inkscape:window-y="37"
     inkscape:window-maximized="0"
     inkscape:current-layer="Calque_1"
     fit-margin-top="0"
     fit-margin-left="0"
     fit-margin-right="0"
     fit-margin-bottom="0" /><g
     id="g4476"
     transform="translate(-77.556003,-78.632)"><g
       id="g4478"><g
         id="g4480"><path
           d="m 336.306,208.007 c 0,71.453 -57.919,129.375 -129.374,129.375 -71.452,0 -129.376,-57.923 -129.376,-129.375 0,-71.452 57.924,-129.375 129.376,-129.375 71.455,0 129.374,57.924 129.374,129.375"
           id="path4482"
           style="fill:#ffffff"
           inkscape:connector-curvature="0" /><path
           d="m 173.653,172.572 c 0.099,-1.113 0.596,-9.199 -5.073,-14.649 -4.242,-4.08 -10.479,-5.427 -18.532,-4.006 -2.448,0.433 -5.732,0.611 -7.47,-0.981 -1.817,-1.665 -1.659,-4.842 -1.659,-4.873 l -0.063,0.005 0.002,-0.192 0.625,-2.521 1.208,-2.374 1.709,-2.066 2.099,-1.621 2.341,-1.058 2.416,-0.426 2.34,0.233 2.09,0.876 1.711,1.464 1.214,1.951 0.625,2.301 v 2.73 l 14.418,-2.541 v -2.972 l -12.651,2.231 12.22,-5.533 -0.748,-2.741 -12.218,5.532 10.956,-8.455 -1.443,-2.322 -10.959,8.459 8.951,-10.807 -2.039,-1.745 -8.949,10.806 6.329,-12.416 -2.499,-1.049 -6.325,12.415 3.273,-13.179 -2.785,-0.278 -3.275,13.177 v -13.044 l -2.884,0.508 v 13.046 l -3.277,-12.024 -2.786,1.262 3.274,12.024 -6.322,-10.185 -2.5,1.931 6.32,10.178 -8.94,-7.645 -2.041,2.464 8.94,7.645 -10.949,-4.589 -1.443,2.832 10.955,4.59 -12.218,-1.222 -0.748,3.005 12.214,1.222 -3.714,0.655 -1.694,0.164 -7.233,0.582 c -0.03,0.313 -0.105,1.43 -0.004,2.985 v 0.818 l 0.064,-0.011 c 0.328,3.321 1.502,8.123 5.279,11.729 2.924,2.791 8.467,5.757 18.265,4.029 2.557,-0.451 5.971,-0.656 7.7,0.923 1.513,1.382 1.434,3.896 1.438,3.896 v -0.004 l 0.05,-0.004 0.002,2.139 -0.627,2.521 -1.21,2.375 -1.709,2.066 -2.099,1.621 -2.34,1.058 -2.416,0.427 -2.339,-0.233 -2.089,-0.877 -1.714,-1.463 -1.214,-1.952 -0.625,-2.3 v -2.731 L 126.44,178.9 v 2.974 l 12.652,-2.231 -12.22,5.531 0.748,2.742 12.22,-5.532 -10.957,8.454 1.443,2.323 10.96,-8.461 -8.949,10.807 2.039,1.746 8.947,-10.805 -6.327,12.415 2.5,1.047 6.322,-12.414 -3.274,13.178 2.786,0.278 3.277,-13.177 v 13.045 l 2.884,-0.508 v -13.045 l 3.275,12.022 2.785,-1.26 -3.273,-12.024 6.325,10.184 2.499,-1.93 -6.322,-10.178 8.943,7.644 2.039,-2.463 -8.94,-7.644 10.951,4.589 1.443,-2.833 -10.958,-4.59 12.218,1.223 0.748,-3.005 -12.213,-1.224 12.645,-2.228 v -0.978 z"
           id="path4484"
           style="fill:#000000"
           inkscape:connector-curvature="0" /><path
           d="m 271.087,285.559 c 0.099,-1.116 0.596,-9.2 -5.07,-14.65 -4.246,-4.079 -10.481,-5.425 -18.535,-4.007 -2.448,0.433 -5.73,0.612 -7.468,-0.98 -1.817,-1.663 -1.658,-4.843 -1.658,-4.873 l -0.066,0.007 v -0.191 l 0.627,-2.523 1.207,-2.374 1.71,-2.063 2.101,-1.623 2.337,-1.057 2.419,-0.427 2.337,0.231 2.092,0.877 1.712,1.463 1.214,1.952 0.628,2.302 v 2.731 l 14.415,-2.542 v -2.973 l -12.651,2.231 12.223,-5.531 -0.748,-2.742 -12.224,5.53 10.959,-8.454 -1.441,-2.322 -10.962,8.459 8.951,-10.808 -2.039,-1.743 -8.951,10.805 6.328,-12.416 -2.496,-1.049 -6.327,12.414 3.276,-13.178 -2.785,-0.278 -3.275,13.178 V 235.89 l -2.887,0.51 v 13.043 l -3.273,-12.022 -2.785,1.261 3.273,12.025 -6.326,-10.184 -2.5,1.928 6.322,10.18 -8.939,-7.644 -2.042,2.462 8.94,7.644 -10.951,-4.587 -1.444,2.832 10.961,4.59 -12.223,-1.221 -0.746,3.004 12.214,1.222 -3.716,0.654 -1.692,0.165 -7.233,0.583 c -0.029,0.313 -0.106,1.429 -0.005,2.984 v 0.818 l 0.064,-0.012 c 0.33,3.32 1.505,8.122 5.28,11.728 2.924,2.793 8.467,5.76 18.265,4.03 2.56,-0.448 5.971,-0.657 7.703,0.922 1.511,1.384 1.434,3.898 1.438,3.898 v -0.005 l 0.051,-0.003 v 2.138 l -0.628,2.521 -1.209,2.374 -1.708,2.066 -2.103,1.621 -2.337,1.059 -2.419,0.424 -2.337,-0.232 -2.09,-0.876 -1.711,-1.463 -1.217,-1.951 -0.627,-2.302 v -2.731 l -14.416,2.541 v 2.975 l 12.651,-2.232 -12.218,5.532 0.744,2.742 12.223,-5.532 -10.958,8.454 1.441,2.323 10.964,-8.461 -8.954,10.808 2.042,1.744 8.948,-10.805 -6.326,12.416 2.495,1.049 6.326,-12.413 -3.273,13.177 2.785,0.279 3.273,-13.18 0.002,13.046 2.885,-0.506 v -13.048 l 3.275,12.022 2.785,-1.261 -3.276,-12.022 6.327,10.182 2.499,-1.93 -6.322,-10.175 8.942,7.643 2.039,-2.464 -8.94,-7.645 10.951,4.587 1.443,-2.831 -10.958,-4.59 12.221,1.222 0.748,-3.005 -12.214,-1.221 12.643,-2.229 v -0.976 z"
           id="path4486"
           style="fill:#000000"
           inkscape:connector-curvature="0" /><path
           d="m 196.773,132.581 c -0.011,-4.094 -3.232,-6.844 -7.207,-6.143 -3.977,0.701 -7.198,4.587 -7.209,8.686 l 0,0 v 0.017 16.235 53.752 l 2.471,-0.435 V 150.94 l 1.509,-0.265 v 53.75 l 2.473,-0.436 v -53.752 l 1.509,-0.265 v 53.751 l 2.473,-0.435 v -53.752 l 1.509,-0.266 0.002,53.753 2.471,-0.438 V 148.834 132.6 132.581 l -0.001,0 z"
           id="path4488"
           style="fill:#000000"
           inkscape:connector-curvature="0" /><path
           d="m 254.753,106.254 c -0.005,-4.099 -3.229,-6.853 -7.207,-6.151 -3.978,0.702 -7.202,4.592 -7.206,8.694 h -0.003 l 0.003,44.157 -0.003,0.253 v 2.479 l -0.627,2.522 -1.205,2.374 -1.711,2.065 -2.099,1.62 -2.341,1.059 -2.416,0.425 -2.34,-0.234 -2.088,-0.874 -1.713,-1.462 -1.214,-1.955 -0.625,-2.299 v -2.475 -0.257 -51.58 l -2.472,0.437 v 51.579 l -1.509,0.265 v -51.578 l -2.473,0.437 v 51.578 l -1.509,0.265 V 106.02 l -2.473,0.437 v 51.578 l -1.509,0.266 v -51.579 l -2.473,0.437 v 51.579 0.257 2.716 l 12.653,-2.231 -12.222,5.532 0.748,2.742 12.22,-5.533 -10.958,8.455 1.443,2.322 10.959,-8.458 -8.949,10.806 2.037,1.744 8.949,-10.805 -6.327,12.416 2.497,1.048 6.327,-12.415 -3.275,13.179 2.787,0.279 3.273,-13.178 v 13.044 l 2.887,-0.508 v -13.045 l 3.275,12.023 2.785,-1.262 -3.275,-12.023 6.329,10.183 2.496,-1.929 -6.321,-10.177 8.942,7.644 2.041,-2.464 -8.942,-7.644 10.949,4.589 1.442,-2.833 -10.955,-4.591 12.218,1.222 0.748,-3.006 -12.214,-1.221 12.646,-2.227 v -2.721 -44.414 l 0,0 z"
           id="path4490"
           style="fill:#000000"
           inkscape:connector-curvature="0" /><path
           d="m 173.419,265.947 c -1.276,0.224 -2.459,0.791 -3.518,1.552 l 10.949,-48.663 -14.8,2.609 -16.055,70.203 c -0.959,4.188 1.421,7.827 5.314,8.131 0.585,0.048 1.17,0.015 1.747,-0.088 3.264,-0.574 6.23,-3.382 7.048,-6.939 l 3.094,-13.475 c 1.366,1.792 3.64,2.729 6.221,2.274 4.18,-0.737 7.57,-4.827 7.57,-9.138 0.003,-4.309 -3.39,-7.204 -7.57,-6.466"
           id="path4492"
           style="fill:#000000"
           inkscape:connector-curvature="0" /><polygon
           points="196.773,215.979 194.301,216.416 194.301,293.823 196.773,293.388 "
           id="polygon4494"
           style="fill:#000000" /><polygon
           points="190.319,217.119 190.319,294.525 192.792,294.091 192.792,216.682 "
           id="polygon4496"
           style="fill:#000000" /><polygon
           points="186.337,217.821 186.337,295.228 188.81,294.792 188.81,217.384 "
           id="polygon4498"
           style="fill:#000000" /><polygon
           points="182.355,218.522 182.355,295.929 184.828,295.493 184.828,218.086 "
           id="polygon4500"
           style="fill:#000000" /><polygon
           points="244.095,201.911 231.875,207.443 242.83,198.989 241.387,196.667 230.436,205.118 239.376,194.32 237.339,192.575 228.396,203.373 234.719,190.967 232.218,189.92 225.891,202.333 229.168,189.155 226.379,188.876 223.105,202.048 223.11,189.01 220.224,189.516 220.224,204.382 222.872,203.915 225.211,204.148 227.305,205.024 229.019,206.485 230.229,208.438 230.858,210.738 230.858,213.23 230.229,215.751 229.023,218.12 227.312,220.187 225.211,221.81 222.872,222.867 220.224,223.335 220.224,238.199 223.105,237.691 223.105,224.646 226.379,236.668 229.168,235.408 225.891,223.384 232.218,233.566 234.716,231.641 228.387,221.453 237.339,229.104 239.381,226.642 230.429,218.993 241.387,223.586 242.834,220.755 231.875,216.165 244.095,217.385 244.841,214.383 232.622,213.161 245.275,210.929 245.271,207.955 232.622,210.185 244.841,204.655 "
           id="polygon4502"
           style="fill:#000000" /><path
           d="m 211.649,191.027 c -3.98,0.701 -7.203,4.591 -7.209,8.691 h -0.002 v 33.833 c 0.004,4.103 3.229,6.86 7.211,6.158 3.979,-0.703 7.204,-4.596 7.207,-8.7 v -33.833 l 0,0 c -0.009,-4.097 -3.23,-6.85 -7.207,-6.149"
           id="path4504"
           style="fill:#000000"
           inkscape:connector-curvature="0" /><polygon
           points="204.438,242.181 204.438,269.699 206.91,269.264 206.91,241.745 "
           id="polygon4506"
           style="fill:#000000" /><polygon
           points="208.421,241.479 208.421,268.997 210.892,268.562 210.892,241.043 "
           id="polygon4508"
           style="fill:#000000" /><polygon
           points="212.401,240.778 212.401,268.295 214.874,267.86 214.874,240.341 "
           id="polygon4510"
           style="fill:#000000" /><polygon
           points="216.383,240.075 216.383,267.594 218.855,267.157 218.855,239.639 "
           id="polygon4512"
           style="fill:#000000" /><path
           d="m 310.748,331.754 c -4.153,0.732 -7.502,-2.169 -7.502,-6.45 v -0.75 l 5.1,-0.901 v 0.754 c 0,1.389 1.057,2.325 2.402,2.092 1.459,-0.259 2.478,-1.49 2.478,-2.954 0,-1.014 0,-2.028 -3.426,-3.002 -2.984,-0.898 -6.371,-2.482 -6.371,-7.398 0,-4.243 3.313,-8.281 7.465,-9.015 4.186,-0.738 7.429,2.109 7.429,6.351 v 0.901 l -5.097,0.897 v -0.897 c 0,-1.354 -1.019,-2.227 -2.332,-1.992 -1.273,0.222 -2.365,1.541 -2.365,2.854 0,0.977 0,2.103 3.386,3.084 3.165,0.977 6.408,2.548 6.408,7.317 -10e-4,4.355 -3.311,8.356 -7.575,9.109"
           id="path4514"
           inkscape:connector-curvature="0"
           style="fill:#b1b3b4" /><path
           d="m 327.863,320.212 -1.276,0.226 v 7.882 l -5.095,0.898 v -26.284 l 6.371,-1.122 c 4.914,-0.866 8.888,2.565 8.888,7.634 0,5.107 -3.974,9.899 -8.888,10.766 m 0,-13.145 -1.276,0.224 v 7.887 l 1.276,-0.224 c 2.112,-0.372 3.788,-2.396 3.788,-4.611 0,-2.174 -1.675,-3.648 -3.788,-3.276"
           id="path4516"
           inkscape:connector-curvature="0"
           style="fill:#b1b3b4" /><path
           d="m 347.49,325.313 c -4.224,0.745 -7.646,-2.221 -7.646,-6.573 v -11.833 c 0,-4.395 3.423,-8.488 7.646,-9.231 4.188,-0.739 7.611,2.149 7.611,6.545 v 11.826 c 10e-4,4.356 -3.422,8.526 -7.611,9.266 m 2.515,-20.193 c 0,-1.43 -1.129,-2.434 -2.515,-2.187 -1.421,0.246 -2.547,1.65 -2.547,3.077 v 11.829 c 0,1.46 1.126,2.428 2.547,2.178 1.386,-0.247 2.515,-1.607 2.515,-3.07 V 305.12 z"
           id="path4518"
           inkscape:connector-curvature="0"
           style="fill:#b1b3b4" /><path
           d="m 368.357,302.558 v -0.788 c 0,-1.427 -1.128,-2.431 -2.516,-2.187 -1.417,0.254 -2.548,1.652 -2.548,3.077 v 19.19 l -5.095,0.899 V 303.56 c 0,-4.358 3.42,-8.489 7.643,-9.233 4.19,-0.74 7.613,2.188 7.613,6.543 v 0.79 l -5.097,0.898 z"
           id="path4520"
           inkscape:connector-curvature="0"
           style="fill:#b1b3b4" /><path
           d="m 384.197,318.839 c -4.224,0.747 -7.645,-2.218 -7.645,-6.576 v -19.037 l 5.097,-0.899 v 5.259 l 7.607,-1.34 v 5.257 l -7.607,1.341 v 8.521 c 0,1.468 1.127,2.434 2.548,2.183 1.384,-0.246 2.513,-1.606 2.513,-3.071 v -0.64 l 5.099,-0.9 v 0.64 c 0,4.354 -3.424,8.523 -7.612,9.262"
           id="path4522"
           inkscape:connector-curvature="0"
           style="fill:#b1b3b4" /><path
           d="m 212.089,386.597 c -4.226,0.74 -7.651,-2.221 -7.651,-6.578 v -19.035 l 5.101,-0.899 v 19.035 c 0,1.469 1.128,2.429 2.55,2.178 1.381,-0.239 2.512,-1.602 2.512,-3.066 v -19.039 l 5.099,-0.9 v 19.037 c 0,4.355 -3.425,8.524 -7.611,9.267"
           id="path4524"
           inkscape:connector-curvature="0"
           style="fill:#b1b3b4" /><path
           d="m 232.952,382.238 v -19.075 c 0,-1.425 -1.126,-2.426 -2.512,-2.184 -1.421,0.25 -2.547,1.649 -2.547,3.075 v 19.079 l -5.1,0.898 v -19.075 c 0,-4.394 3.423,-8.492 7.647,-9.235 4.188,-0.737 7.612,2.149 7.612,6.542 v 19.077 l -5.1,0.898 z"
           id="path4526"
           inkscape:connector-curvature="0"
           style="fill:#b1b3b4" /><polygon
           points="255.535,352.03 258.776,370.008 261.981,350.895 267.187,349.974 262.603,377.066 254.955,378.415 250.401,352.937 "
           id="polygon4528"
           style="fill:#b1b3b4" /><path
           d="m 277.165,375.138 c -4.222,0.743 -7.647,-2.178 -7.647,-6.534 v -11.831 c 0,-4.315 3.426,-8.486 7.647,-9.232 4.188,-0.737 7.611,2.227 7.611,6.545 v 8.562 l -10.159,1.791 v 3.267 c 0,1.465 1.129,2.429 2.548,2.176 1.387,-0.242 2.515,-1.606 2.515,-3.069 v -0.638 l 5.097,-0.899 v 0.638 c -10e-4,4.355 -3.423,8.484 -7.612,9.224 m 2.515,-20.156 c 0,-1.426 -1.128,-2.429 -2.515,-2.187 -1.419,0.25 -2.548,1.653 -2.548,3.08 v 3.304 l 5.063,-0.894 v -3.303 z"
           id="path4530"
           inkscape:connector-curvature="0"
           style="fill:#b1b3b4" /><path
           d="m 298.033,352.422 v -0.787 c 0,-1.427 -1.129,-2.43 -2.513,-2.188 -1.421,0.251 -2.55,1.652 -2.55,3.08 v 19.187 l -5.097,0.898 v -19.188 c 0,-4.356 3.421,-8.492 7.646,-9.235 4.188,-0.739 7.611,2.189 7.611,6.547 v 0.787 l -5.097,0.899 z"
           id="path4532"
           inkscape:connector-curvature="0"
           style="fill:#b1b3b4" /><path
           d="m 312.318,368.828 c -4.149,0.735 -7.501,-2.169 -7.501,-6.45 v -0.752 l 5.1,-0.898 v 0.749 c 0,1.392 1.053,2.332 2.401,2.094 1.456,-0.257 2.478,-1.487 2.478,-2.952 0,-1.012 0,-2.028 -3.423,-3.003 -2.987,-0.897 -6.375,-2.479 -6.375,-7.398 0,-4.245 3.316,-8.281 7.466,-9.015 4.188,-0.735 7.431,2.107 7.431,6.353 v 0.9 l -5.099,0.899 v -0.901 c 0,-1.354 -1.021,-2.225 -2.332,-1.993 -1.271,0.225 -2.366,1.545 -2.366,2.86 0,0.972 0,2.101 3.387,3.079 3.168,0.981 6.41,2.55 6.41,7.321 0,4.351 -3.315,8.355 -7.577,9.107"
           id="path4534"
           inkscape:connector-curvature="0"
           style="fill:#b1b3b4" /><path
           d="m 339.844,364.469 c -4.225,0.747 -7.647,-2.221 -7.647,-6.574 v -19.04 l 5.1,-0.899 v 5.263 l 7.609,-1.345 v 5.256 l -7.609,1.344 v 8.524 c 0,1.463 1.128,2.429 2.548,2.179 1.386,-0.245 2.514,-1.607 2.514,-3.076 v -0.634 l 5.097,-0.901 v 0.643 c -0.002,4.349 -3.424,8.522 -7.612,9.26"
           id="path4536"
           inkscape:connector-curvature="0"
           style="fill:#b1b3b4" /><path
           d="m 358.199,361.196 c -4.224,0.744 -7.648,-2.182 -7.648,-6.54 V 342.83 c 0,-4.316 3.425,-8.489 7.648,-9.233 4.187,-0.736 7.609,2.228 7.609,6.54 v 8.564 l -10.161,1.789 v 3.271 c 0,1.463 1.131,2.429 2.552,2.175 1.382,-0.243 2.513,-1.604 2.513,-3.07 v -0.638 l 5.097,-0.898 v 0.641 c 0,4.353 -3.423,8.484 -7.61,9.225 m 5.425,-33.137 -5.1,6.157 -5.717,1.007 5.026,-6.144 5.791,-1.02 z m -2.912,12.978 c 0,-1.425 -1.131,-2.426 -2.513,-2.183 -1.421,0.249 -2.552,1.652 -2.552,3.076 v 3.306 l 5.064,-0.893 v -3.306 z"
           id="path4538"
           inkscape:connector-curvature="0"
           style="fill:#b1b3b4" /><path
           d="m 376.516,357.965 c -4.153,0.733 -7.502,-2.169 -7.502,-6.45 v -0.747 l 5.097,-0.902 v 0.753 c 0,1.39 1.057,2.327 2.405,2.09 1.456,-0.255 2.477,-1.487 2.477,-2.953 0,-1.016 0,-2.028 -3.426,-3 -2.984,-0.897 -6.373,-2.481 -6.373,-7.4 0,-4.241 3.315,-8.28 7.467,-9.011 4.188,-0.738 7.43,2.105 7.43,6.346 v 0.903 l -5.098,0.899 v -0.902 c 0,-1.353 -1.021,-2.221 -2.332,-1.993 -1.275,0.228 -2.367,1.545 -2.367,2.858 0,0.977 0,2.103 3.389,3.082 3.167,0.983 6.408,2.551 6.408,7.318 -0.001,4.358 -3.317,8.36 -7.575,9.109"
           id="path4540"
           inkscape:connector-curvature="0"
           style="fill:#b1b3b4" /><path
           d="m 271.892,413.585 -2.8,-7.43 c -0.149,0.026 -0.366,0.066 -0.511,0.128 -0.511,0.088 -1.129,0.2 -1.642,0.29 v 7.886 l -5.097,0.898 v -26.286 l 6.373,-1.124 c 4.915,-0.864 8.885,2.563 8.885,7.636 0,2.775 -1.238,5.623 -3.313,7.792 l 3.495,9.26 -5.39,0.95 z m -3.676,-20.382 -1.276,0.224 v 7.887 l 1.276,-0.225 c 2.112,-0.371 3.786,-2.396 3.786,-4.608 0,-2.178 -1.674,-3.648 -3.786,-3.278"
           id="path4542"
           inkscape:connector-curvature="0"
           style="fill:#b1b3b4" /><path
           d="m 287.843,411.408 c -4.223,0.746 -7.646,-2.182 -7.646,-6.535 v -11.828 c 0,-4.316 3.423,-8.488 7.646,-9.235 4.188,-0.735 7.612,2.228 7.612,6.542 v 8.566 l -10.16,1.79 v 3.265 c 0,1.465 1.127,2.431 2.548,2.179 1.387,-0.245 2.515,-1.606 2.515,-3.071 v -0.638 l 5.098,-0.897 v 0.638 c -0.001,4.354 -3.426,8.488 -7.613,9.224 m 2.514,-20.154 c 0,-1.426 -1.128,-2.43 -2.515,-2.185 -1.421,0.25 -2.548,1.647 -2.548,3.077 v 3.305 l 5.063,-0.893 v -3.304 z"
           id="path4544"
           inkscape:connector-curvature="0"
           style="fill:#b1b3b4" /><path
           d="m 308.711,407.092 v -19.074 c 0,-1.428 -1.131,-2.429 -2.513,-2.184 -1.423,0.25 -2.551,1.649 -2.551,3.074 v 19.075 l -5.1,0.899 V 389.81 c 0,-4.395 3.427,-8.49 7.65,-9.233 4.187,-0.74 7.607,2.146 7.607,6.542 v 19.075 l -5.093,0.898 z"
           id="path4546"
           inkscape:connector-curvature="0"
           style="fill:#b1b3b4" /><path
           d="m 327.063,403.854 v -19.073 c 0,-1.427 -1.129,-2.428 -2.51,-2.187 -1.422,0.251 -2.551,1.652 -2.551,3.08 v 19.073 l -5.099,0.899 v -19.073 c 0,-4.393 3.423,-8.491 7.649,-9.237 4.186,-0.736 7.608,2.151 7.608,6.545 v 19.074 l -5.097,0.899 z"
           id="path4548"
           inkscape:connector-curvature="0"
           style="fill:#b1b3b4" /><path
           d="m 342.901,401.7 c -4.222,0.747 -7.645,-2.185 -7.645,-6.535 v -11.831 c 0,-4.316 3.423,-8.485 7.645,-9.23 4.188,-0.739 7.611,2.224 7.611,6.542 v 8.563 L 340.354,391 v 3.265 c 0,1.468 1.13,2.431 2.547,2.181 1.386,-0.244 2.515,-1.61 2.515,-3.073 v -0.638 l 5.097,-0.9 v 0.638 c 0,4.355 -3.423,8.491 -7.612,9.227 m 2.515,-20.156 c 0,-1.427 -1.129,-2.43 -2.515,-2.185 -1.417,0.25 -2.547,1.651 -2.547,3.077 v 3.307 l 5.062,-0.896 v -3.303 z"
           id="path4550"
           inkscape:connector-curvature="0"
           style="fill:#b1b3b4" /><path
           d="m 361.222,398.474 c -4.151,0.729 -7.502,-2.171 -7.502,-6.452 v -0.75 l 5.1,-0.897 v 0.747 c 0,1.391 1.052,2.33 2.402,2.095 1.456,-0.26 2.478,-1.491 2.478,-2.952 0,-1.017 0,-2.03 -3.424,-3.005 -2.986,-0.898 -6.373,-2.479 -6.373,-7.398 0,-4.243 3.313,-8.282 7.465,-9.013 4.184,-0.739 7.429,2.107 7.429,6.349 v 0.902 l -5.097,0.899 V 378.1 c 0,-1.355 -1.021,-2.227 -2.332,-1.995 -1.275,0.224 -2.367,1.546 -2.367,2.859 0,0.975 0,2.102 3.386,3.08 3.165,0.983 6.41,2.549 6.41,7.32 -0.001,4.354 -3.317,8.357 -7.575,9.11"
           id="path4552"
           inkscape:connector-curvature="0"
           style="fill:#b1b3b4" /><path
           d="m 246.686,356.205 c -0.116,-1.326 -1.202,-2.195 -2.54,-1.962 -1.338,0.237 -2.424,1.492 -2.539,2.861 0,0 -0.022,21.52 -0.022,21.574 0,1.461 1.148,2.442 2.565,2.191 1.412,-0.251 2.561,-1.637 2.561,-3.093 -0.001,-0.034 -0.025,-21.571 -0.025,-21.571"
           id="path4554"
           inkscape:connector-curvature="0"
           style="fill:#b1b3b4" /><path
           d="m 328.243,341.497 c -0.118,-1.324 -1.202,-2.195 -2.54,-1.96 -1.338,0.237 -2.424,1.491 -2.539,2.86 0,0 -0.022,21.521 -0.022,21.576 0,1.458 1.146,2.439 2.562,2.188 1.416,-0.248 2.564,-1.633 2.564,-3.093 0,-0.035 -0.025,-21.571 -0.025,-21.571"
           id="path4556"
           inkscape:connector-curvature="0"
           style="fill:#b1b3b4" /><polygon
           style="fill:#000000"
           id="polygon4591"
           points="216.383,240.075 216.383,267.594 218.855,267.157 218.855,239.639 " /></g></g></g></svg>