<?xml version="1.0" encoding="UTF-8" standalone="no"?>
<!-- Generator: Adobe Illustrator 16.0.0, SVG Export Plug-In . SVG Version: 6.00 Build 0)  -->

<svg
   xmlns:dc="http://purl.org/dc/elements/1.1/"
   xmlns:cc="http://creativecommons.org/ns#"
   xmlns:rdf="http://www.w3.org/1999/02/22-rdf-syntax-ns#"
   xmlns:svg="http://www.w3.org/2000/svg"
   xmlns="http://www.w3.org/2000/svg"
   xmlns:sodipodi="http://sodipodi.sourceforge.net/DTD/sodipodi-0.dtd"
   xmlns:inkscape="http://www.inkscape.org/namespaces/inkscape"
   version="1.1"
   id="Calque_1"
   x="0px"
   y="0px"
   width="311.81"
   height="311.81299"
   viewBox="0 0 311.81 311.81299"
   enable-background="new 0 0 470.137 471.212"
   xml:space="preserve"
   inkscape:version="0.48.4 r9939"
   sodipodi:docname="LOGO SIUAPS CMJN simple copie.svg"><metadata
     id="metadata3188"><rdf:RDF><cc:Work
         rdf:about=""><dc:format>image/svg+xml</dc:format><dc:type
           rdf:resource="http://purl.org/dc/dcmitype/StillImage" /></cc:Work></rdf:RDF></metadata><defs
     id="defs3186" /><sodipodi:namedview
     pagecolor="#ffffff"
     bordercolor="#666666"
     borderopacity="1"
     objecttolerance="10"
     gridtolerance="10"
     guidetolerance="10"
     inkscape:pageopacity="0"
     inkscape:pageshadow="2"
     inkscape:window-width="1916"
     inkscape:window-height="1041"
     id="namedview3184"
     showgrid="false"
     fit-margin-top="0"
     fit-margin-left="0"
     fit-margin-right="0"
     fit-margin-bottom="0"
     inkscape:zoom="1.8123477"
     inkscape:cx="156.5795"
     inkscape:cy="154.73901"
     inkscape:window-x="0"
     inkscape:window-y="37"
     inkscape:window-maximized="0"
     inkscape:current-layer="Calque_1" /><path
     d="m 311.81,155.904 c 0,86.106 -69.798,155.909 -155.904,155.909 C 69.802998,311.813 -2.3563764e-6,242.01 -2.3563764e-6,155.904 -2.3563764e-6,69.8 69.802998,0 155.906,0 242.012,0 311.81,69.8 311.81,155.904"
     id="path3152"
     inkscape:connector-curvature="0"
     style="fill:#0098a1" /><path
     d="m 115.803,113.204 c 0.118,-1.345 0.718,-11.086 -6.114,-17.654 -5.112,-4.917 -12.628002,-6.54 -22.333002,-4.829 -2.948,0.521 -6.907,0.737 -9.001,-1.182 -2.19,-2.004 -2.001,-5.834 -2.001,-5.873 l -0.078,0.007 0.002,-0.229 0.753,-3.04 1.457,-2.86 2.061,-2.489 2.528,-1.953 2.819,-1.274 2.913,-0.516 2.819,0.282 2.518,1.055 2.063,1.763 1.465,2.352 0.753,2.773 v 3.291 l 17.375002,-3.063 -0.003,-3.582 -15.243,2.689 14.725,-6.667 -0.9,-3.303 L 99.655998,75.566 112.858,65.378 111.12,62.579 97.910998,72.774 108.698,59.751 106.24,57.649 95.454998,70.671 103.082,55.71 l -3.01,-1.263 -7.621002,14.959 3.942,-15.881 -3.358,-0.337 -3.947,15.881 V 53.348 l -3.474,0.614 v 15.722 l -3.947,-14.489 -3.358,1.521 3.947,14.489 -7.622,-12.274 -3.012,2.329 7.618,12.264 -10.773,-9.212 -2.461,2.969 10.774,9.212 -13.198,-5.529 -1.738,3.413 13.207,5.531 -14.729,-1.473 -0.899,3.622 14.717,1.473 -4.476,0.791 -2.042,0.196 -8.717,0.702 c -0.037,0.378 -0.126,1.724 -0.006,3.597 v 0.985 l 0.08,-0.013 c 0.395,4.002 1.811,9.788 6.362,14.135 3.522,3.361 10.201,6.938 22.011,4.854 3.081,-0.542 7.195,-0.792 9.276,1.114 1.825,1.665 1.731,4.697 1.738,4.696 v -0.006 l 0.056,-0.005 0.004,2.577 -0.752,3.038 -1.459,2.862 -2.061,2.489 -2.531,1.954 -2.819,1.275 -2.913,0.512 -2.816,-0.279 -2.52,-1.056 -2.063,-1.765 -1.465,-2.35 -0.753,-2.773 v -3.291 l -17.372,3.062 v 3.584 l 15.247,-2.689 -14.725,6.665 0.897,3.304 14.729,-6.665 -13.205,10.188 1.735,2.8 13.212,-10.197 -10.781,13.022 2.458,2.101 10.781,-13.02 -7.625,14.96 3.011,1.263 7.622,-14.96 -3.947,15.88 3.358,0.335 3.947,-15.88 v 15.721 l 3.474,-0.613 v -15.719 l 3.947,14.488 3.361,-1.519 -3.945,-14.49 7.621002,12.271 3.01,-2.323 -7.619002,-12.267 10.776002,9.214 2.458,-2.97 -10.773002,-9.211 13.195002,5.53 1.738,-3.413 -13.202002,-5.533 14.725002,1.473 0.903,-3.62 -14.721,-1.474 15.239,-2.685 v -1.178 z"
     id="path3154"
     inkscape:connector-curvature="0"
     style="fill:#ffffff" /><path
     d="m 233.215,249.36 c 0.119,-1.347 0.717,-11.087 -6.111,-17.655 -5.114,-4.917 -12.626,-6.537 -22.332,-4.83 -2.951,0.522 -6.905,0.739 -9,-1.182 -2.19,-2.002 -2.002,-5.831 -2.002,-5.871 l -0.074,0.009 -0.003,-0.23 0.754,-3.04 1.455,-2.864 2.062,-2.486 2.529,-1.953 2.822,-1.273 2.913,-0.516 2.814,0.28 2.52,1.057 2.064,1.762 1.464,2.353 0.755,2.774 v 3.292 l 17.37,-3.062 v -3.584 l -15.243,2.688 14.727,-6.663 -0.901,-3.309 -14.727,6.667 13.203,-10.188 -1.736,-2.8 -13.209,10.197 10.783,-13.025 -2.455,-2.103 -10.787,13.022 7.628,-14.961 -3.009,-1.265 -7.623,14.958 3.946,-15.879 -3.355,-0.337 -3.948,15.882 v -15.72 l -3.479,0.612 v 15.72 l -3.948,-14.487 -3.353,1.519 3.946,14.492 -7.626,-12.273 -3.009,2.325 7.618,12.266 -10.776,-9.213 -2.459,2.97 10.775,9.211 -13.196,-5.53 -1.738,3.415 13.204,5.529 -14.727,-1.472 -0.9,3.622 14.719,1.47 -4.479,0.791 -2.04,0.195 -8.716,0.702 c -0.037,0.379 -0.126,1.724 -0.005,3.601 v 0.984 l 0.077,-0.014 c 0.397,4.003 1.813,9.787 6.363,14.135 3.523,3.365 10.201,6.938 22.011,4.855 3.081,-0.541 7.195,-0.793 9.279,1.109 1.823,1.668 1.728,4.698 1.733,4.698 v -0.007 l 0.062,-0.002 v 2.573 l -0.755,3.041 -1.458,2.861 -2.058,2.489 -2.533,1.954 -2.814,1.271 -2.913,0.514 -2.822,-0.277 -2.519,-1.058 -2.063,-1.762 -1.465,-2.353 -0.751,-2.774 v -3.29 l -17.375,3.062 v 3.585 l 15.246,-2.689 -14.726,6.667 0.9,3.304 14.727,-6.667 -13.204,10.19 1.738,2.795 13.209,-10.192 -10.788,13.021 2.459,2.105 10.783,-13.021 -7.625,14.959 3.009,1.265 7.622,-14.961 -3.942,15.882 3.353,0.337 3.948,-15.88 0.004,15.717 3.475,-0.612 v -15.72 l 3.948,14.488 3.355,-1.519 -3.946,-14.49 7.623,12.27 3.012,-2.325 -7.621,-12.26 10.777,9.21 2.458,-2.969 -10.773,-9.213 13.196,5.529 1.737,-3.412 -13.204,-5.532 14.727,1.472 0.902,-3.619 -14.718,-1.475 15.233,-2.685 v -1.174 z"
     id="path3156"
     inkscape:connector-curvature="0"
     style="fill:#ffffff" /><path
     d="m 143.663,65.012 c -0.013,-4.935 -3.895,-8.249 -8.689,-7.404 -4.789,0.844 -8.671,5.527 -8.684,10.467 l 0,0 v 0.021 19.564 64.777 l 2.978,-0.527 V 87.137 l 1.82,-0.322 v 64.775 l 2.979,-0.525 V 86.288 l 1.818,-0.32 v 64.774 l 2.979,-0.524 V 85.443 l 1.819,-0.321 0.001,64.773 2.98,-0.523 V 84.596 65.033 65.013 h -10e-4 z"
     id="path3158"
     inkscape:connector-curvature="0"
     style="fill:#ffffff" /><path
     d="m 213.534,33.285 c -0.011,-4.94 -3.891,-8.256 -8.687,-7.412 -4.795,0.845 -8.677,5.533 -8.687,10.476 l 0,0 v 53.211 0.307 2.985 l -0.756,3.04 -1.454,2.859 -2.061,2.489 -2.532,1.952 -2.817,1.276 -2.911,0.513 -2.818,-0.281 -2.518,-1.054 -2.066,-1.763 -1.463,-2.356 -0.756,-2.771 V 93.776 93.465 31.31 l -2.979,0.525 0.003,62.155 -1.818,0.321 -0.005,-62.155 -2.974,0.526 v 62.153 l -1.822,0.323 V 33.001 l -2.98,0.527 v 62.154 l -1.817,0.321 V 33.848 l -2.979,0.524 v 62.156 0.31 3.272 l 15.246,-2.688 -14.726,6.666 0.899,3.305 14.727,-6.667 -13.202,10.19 1.737,2.797 13.208,-10.195 -10.787,13.023 2.459,2.101 10.786,-13.02 -7.628,14.96 3.01,1.265 7.623,-14.961 -3.944,15.881 3.354,0.335 3.947,-15.879 v 15.721 l 3.477,-0.614 v -15.723 l 3.946,14.491 3.359,-1.519 -3.948,-14.491 7.624,12.274 3.011,-2.328 -7.619,-12.264 10.775,9.21 2.46,-2.969 -10.773,-9.211 13.193,5.532 1.741,-3.415 -13.203,-5.532 14.724,1.472 0.9,-3.621 -14.72,-1.471 15.24,-2.686 v -3.28 -53.514 l 0.001,0 z"
     id="path3160"
     inkscape:connector-curvature="0"
     style="fill:#ffffff" /><path
     d="m 115.521,225.725 c -1.539,0.271 -2.965,0.954 -4.236,1.872 l 13.194,-58.643 -17.836,3.146 -19.348002,84.599 c -1.157,5.044 1.709,9.432 6.406,9.799 0.706,0.055 1.41,0.017 2.102,-0.105 3.935,-0.695 7.509002,-4.079 8.495002,-8.363 l 3.727,-16.24 c 1.645,2.16 4.388,3.293 7.497,2.744 5.038,-0.891 9.121,-5.819 9.121,-11.013 -0.001,-5.196 -4.085,-8.686 -9.122,-7.796"
     id="path3162"
     inkscape:connector-curvature="0"
     style="fill:#ffffff" /><polygon
     points="222.155,337.324 222.155,244.043 219.173,244.57 219.173,337.852 "
     id="polygon3164"
     style="fill:#ffffff"
     transform="translate(-78.489002,-78.532)" /><polygon
     points="217.354,244.89 214.375,245.415 214.375,338.697 217.353,338.172 "
     id="polygon3166"
     style="fill:#ffffff"
     transform="translate(-78.489002,-78.532)" /><polygon
     points="212.557,245.737 209.578,246.263 209.578,339.545 212.557,339.018 "
     id="polygon3168"
     style="fill:#ffffff"
     transform="translate(-78.489002,-78.532)" /><polygon
     points="207.758,246.582 204.779,247.108 204.779,340.388 207.758,339.865 "
     id="polygon3170"
     style="fill:#ffffff"
     transform="translate(-78.489002,-78.532)" /><polygon
     points="275.914,220.771 262.718,230.954 273.493,217.943 271.034,215.841 260.259,228.851 267.88,213.904 264.865,212.639 257.242,227.596 261.19,211.72 257.833,211.382 253.886,227.256 253.889,211.544 250.41,212.154 250.409,230.067 253.602,229.505 256.42,229.786 258.947,230.841 261.01,232.603 262.472,234.954 263.227,237.726 263.227,240.73 262.472,243.767 261.015,246.621 258.952,249.114 256.42,251.071 253.602,252.344 250.41,252.906 250.409,270.818 253.883,270.208 253.886,254.485 257.833,268.975 261.19,267.456 257.242,252.966 264.865,265.235 267.876,262.915 260.249,250.64 271.034,259.858 273.493,256.893 262.711,247.674 275.914,253.208 277.658,249.799 264.451,244.267 279.179,245.738 280.077,242.12 265.351,240.645 280.598,237.958 280.598,234.373 265.351,237.061 280.077,230.396 279.179,227.091 264.451,233.758 277.655,223.57 "
     id="polygon3172"
     style="fill:#ffffff"
     transform="translate(-78.489002,-78.532)" /><path
     d="m 161.587,135.443 c -4.793,0.846 -8.678,5.532 -8.685,10.473 l 0,0 v 40.771 c 0.003,4.944 3.891,8.266 8.685,7.421 4.798,-0.847 8.686,-5.539 8.688,-10.485 v -40.769 l 0,0 c -0.008,-4.939 -3.894,-8.256 -8.688,-7.411"
     id="path3174"
     inkscape:connector-curvature="0"
     style="fill:#ffffff" /><polygon
     points="234.37,275.093 231.391,275.618 231.391,308.778 234.37,308.256 "
     id="polygon3176"
     style="fill:#ffffff"
     transform="translate(-78.489002,-78.532)" /><polygon
     points="239.167,274.248 236.188,274.771 236.188,307.934 239.167,307.408 "
     id="polygon3178"
     style="fill:#ffffff"
     transform="translate(-78.489002,-78.532)" /><polygon
     points="243.965,273.4 240.985,273.926 240.985,307.088 243.965,306.563 "
     id="polygon3180"
     style="fill:#ffffff"
     transform="translate(-78.489002,-78.532)" /><polygon
     points="248.764,272.555 245.787,273.08 245.787,306.24 248.764,305.717 "
     id="polygon3182"
     style="fill:#ffffff"
     transform="translate(-78.489002,-78.532)" /></svg>