<?xml version="1.0" encoding="UTF-8" standalone="no"?>
<!-- Created with Inkscape (http://www.inkscape.org/) -->

<svg
   xmlns:dc="http://purl.org/dc/elements/1.1/"
   xmlns:cc="http://creativecommons.org/ns#"
   xmlns:rdf="http://www.w3.org/1999/02/22-rdf-syntax-ns#"
   xmlns:svg="http://www.w3.org/2000/svg"
   xmlns="http://www.w3.org/2000/svg"
   xmlns:sodipodi="http://sodipodi.sourceforge.net/DTD/sodipodi-0.dtd"
   xmlns:inkscape="http://www.inkscape.org/namespaces/inkscape"
   id="svg4136"
   version="1.1"
   inkscape:version="0.91 r13725"
   xml:space="preserve"
   width="295.30151"
   height="108.05802"
   viewBox="0 0 295.3015 108.05802"
   sodipodi:docname="logour1-w.svg"><metadata
     id="metadata4142"><rdf:RDF><cc:Work
         rdf:about=""><dc:format>image/svg+xml</dc:format><dc:type
           rdf:resource="http://purl.org/dc/dcmitype/StillImage" /><dc:title></dc:title></cc:Work></rdf:RDF></metadata><defs
     id="defs4140"><clipPath
       clipPathUnits="userSpaceOnUse"
       id="clipPath4150"><path
         d="m 0,595.275 841.89,0 L 841.89,0 0,0 0,595.275 Z"
         id="path4152"
         inkscape:connector-curvature="0" /></clipPath></defs><sodipodi:namedview
     pagecolor="#ffffff"
     bordercolor="#666666"
     borderopacity="1"
     objecttolerance="10"
     gridtolerance="10"
     guidetolerance="10"
     inkscape:pageopacity="0"
     inkscape:pageshadow="2"
     inkscape:window-width="1366"
     inkscape:window-height="706"
     id="namedview4138"
     showgrid="false"
     inkscape:zoom="0.36218554"
     inkscape:cx="416.14324"
     inkscape:cy="-92.739906"
     inkscape:window-x="1912"
     inkscape:window-y="304"
     inkscape:window-maximized="1"
     inkscape:current-layer="g4144"
     fit-margin-top="0"
     fit-margin-left="0"
     fit-margin-right="0"
     fit-margin-bottom="0" /><g
     id="g4144"
     inkscape:groupmode="layer"
     inkscape:label="323746_UR1-reserveAI"
     transform="matrix(1.25,0,0,-1.25,-379.95975,423.6689)"><g
       id="g4146"><g
         id="g4148"
         clip-path="url(#clipPath4150)"><g
           id="g4154"
           transform="translate(303.9678,306.646)"><path
             d="m 0,0 1.846,0 0,-9.27 c 0,-3.169 0.963,-3.972 2.708,-3.972 1.746,0 2.709,0.803 2.709,3.972 l 0,9.27 1.846,0 0,-9.189 c 0,-4.013 -1.485,-5.598 -4.555,-5.598 C 1.485,-14.787 0,-13.202 0,-9.189 L 0,0 Z"
             style="fill:#ffffff;fill-opacity:1;fill-rule:nonzero;stroke:none"
             id="path4156"
             inkscape:connector-curvature="0" /></g><g
           id="g4158"
           transform="translate(328.7256,306.646)"><path
             d="m 0,0 0,-14.486 -2.527,0 -5.719,12.56 -0.04,0 0,-12.56 -1.645,0 0,14.486 2.608,0 5.638,-12.4 0.04,0 0,12.4 L 0,0 Z"
             style="fill:#ffffff;fill-opacity:1;fill-rule:nonzero;stroke:none"
             id="path4160"
             inkscape:connector-curvature="0" /></g><path
           d="m 336.57,292.16 -1.846,0 0,14.486 1.846,0 0,-14.486 z"
           style="fill:#ffffff;fill-opacity:1;fill-rule:nonzero;stroke:none"
           id="path4162"
           inkscape:connector-curvature="0" /><g
           id="g4164"
           transform="translate(347.5059,292.1602)"><path
             d="m 0,0 -2.207,0 -4.193,14.486 2.005,0 3.311,-12.74 0.04,0 3.391,12.74 1.886,0 L 0,0 Z"
             style="fill:#ffffff;fill-opacity:1;fill-rule:nonzero;stroke:none"
             id="path4166"
             inkscape:connector-curvature="0" /></g><g
           id="g4168"
           transform="translate(356.0322,292.1602)"><path
             d="m 0,0 0,14.486 7.464,0 0,-1.605 -5.618,0 0,-4.655 5.217,0 0,-1.605 -5.217,0 0,-5.016 5.738,0 L 7.584,0 0,0 Z"
             style="fill:#ffffff;fill-opacity:1;fill-rule:nonzero;stroke:none"
             id="path4170"
             inkscape:connector-curvature="0" /></g><g
           id="g4172"
           transform="translate(370.2773,300.4263)"><path
             d="m 0,0 2.77,0 c 1.323,0 1.965,1.144 1.965,2.408 0,1.043 -0.521,2.207 -1.946,2.207 L 0,4.615 0,0 Z m 0,-1.605 0,-6.661 -1.846,0 0,14.486 4.996,0 c 2.569,0 3.471,-1.806 3.471,-3.612 0,-1.705 -0.942,-3.009 -2.648,-3.31 l 0,-0.04 C 5.638,-1.003 6.24,-1.565 6.34,-4.474 6.36,-5.096 6.561,-7.364 6.842,-8.266 l -1.926,0 c -0.521,1.003 -0.401,2.889 -0.562,4.815 -0.14,1.765 -1.565,1.846 -2.187,1.846 l -2.167,0 z"
             style="fill:#ffffff;fill-opacity:1;fill-rule:nonzero;stroke:none"
             id="path4174"
             inkscape:connector-curvature="0" /></g><g
           id="g4176"
           transform="translate(383.459,296.4736)"><path
             d="m 0,0 0,-0.421 c 0,-1.967 1.244,-2.588 2.428,-2.588 1.465,0 2.589,0.621 2.589,2.347 0,3.21 -6.501,2.849 -6.501,7.203 0,2.568 1.826,3.932 4.254,3.932 2.648,0 4.132,-1.284 4.012,-4.233 l -1.927,0 C 4.876,7.825 4.374,8.868 2.629,8.868 1.525,8.868 0.401,8.307 0.401,6.742 c 0,-3.191 6.501,-2.729 6.501,-7.323 0,-3.051 -2.106,-4.033 -4.494,-4.033 -4.273,-0.04 -4.273,3.23 -4.233,4.614 L 0,0 Z"
             style="fill:#ffffff;fill-opacity:1;fill-rule:nonzero;stroke:none"
             id="path4178"
             inkscape:connector-curvature="0" /></g><path
           d="m 397.685,292.16 -1.846,0 0,14.486 1.846,0 0,-14.486 z"
           style="fill:#ffffff;fill-opacity:1;fill-rule:nonzero;stroke:none"
           id="path4180"
           inkscape:connector-curvature="0" /><g
           id="g4182"
           transform="translate(411.709,306.646)"><path
             d="m 0,0 0,-1.605 -3.813,0 0,-12.881 -1.845,0 0,12.881 -3.812,0 L -9.47,0 0,0 Z"
             style="fill:#ffffff;fill-opacity:1;fill-rule:nonzero;stroke:none"
             id="path4184"
             inkscape:connector-curvature="0" /></g><g
           id="g4186"
           transform="translate(421.8008,310.9995)"><path
             d="m 0,0 -2.628,-2.829 -1.345,0 L -2.187,0 0,0 Z m -5.778,-18.839 0,14.485 7.464,0 0,-1.604 -5.619,0 0,-4.655 5.217,0 0,-1.605 -5.217,0 0,-5.016 5.739,0 0,-1.605 -7.584,0 z"
             style="fill:#ffffff;fill-opacity:1;fill-rule:nonzero;stroke:none"
             id="path4188"
             inkscape:connector-curvature="0" /></g><g
           id="g4190"
           transform="translate(437.21,293.7656)"><path
             d="m 0,0 1.745,0 c 2.568,0 3.511,0.963 3.511,4.333 l 0,2.93 c 0,2.929 -0.902,4.012 -2.829,4.012 L 0,11.275 0,0 Z m -1.847,12.88 4.454,0 c 1.847,0 3.17,-0.662 3.893,-2.207 C 7.082,9.45 7.143,6.561 7.143,6.099 7.143,3.009 6.861,1.224 6.26,0.26 5.477,-0.983 4.013,-1.605 1.484,-1.605 l -3.331,0 0,14.485 z"
             style="fill:#ffffff;fill-opacity:1;fill-rule:nonzero;stroke:none"
             id="path4192"
             inkscape:connector-curvature="0" /></g><g
           id="g4194"
           transform="translate(449.9902,292.1602)"><path
             d="m 0,0 0,14.486 7.463,0 0,-1.605 -5.617,0 0,-4.655 5.216,0 0,-1.605 -5.216,0 0,-5.016 5.738,0 L 7.584,0 0,0 Z"
             style="fill:#ffffff;fill-opacity:1;fill-rule:nonzero;stroke:none"
             id="path4196"
             inkscape:connector-curvature="0" /></g><g
           id="g4198"
           transform="translate(339.1504,271.6963)"><path
             d="M 0,0 3.078,0 C 8.211,0 9.678,2.64 9.629,5.425 9.58,8.553 7.723,10.459 3.078,10.459 L 0,10.459 0,0 Z m 3.617,14.564 c 6.744,0 10.947,-3.567 10.947,-9.335 0,-3.861 -2.003,-6.744 -5.572,-8.162 3.031,-2.004 4.887,-5.084 7.43,-9.238 1.418,-2.297 2.248,-3.42 4.545,-6.598 l -5.719,0 -4.398,6.843 c -4.399,6.843 -6.403,7.624 -8.846,7.624 l -2.004,0 0,-14.467 -4.789,0 0,33.333 8.406,0 z"
             style="fill:#ffffff;fill-opacity:1;fill-rule:nonzero;stroke:none"
             id="path4200"
             inkscape:connector-curvature="0" /></g><g
           id="g4202"
           transform="translate(382.6973,281.96)"><path
             d="m 0,0 -14.125,0 0,-10.068 13.637,0 0,-4.302 -13.637,0 0,-10.361 14.564,0 0,-4.301 -19.355,0 0,33.333 L 0,4.301 0,0 Z"
             style="fill:#ffffff;fill-opacity:1;fill-rule:nonzero;stroke:none"
             id="path4204"
             inkscape:connector-curvature="0" /></g><g
           id="g4206"
           transform="translate(419.0605,252.9277)"><path
             d="m 0,0 -4.105,0 -22.288,25.66 0,-25.66 -4.496,0 0,33.333 3.811,0 22.582,-25.806 0,25.806 4.496,0 L 0,0 Z"
             style="fill:#ffffff;fill-opacity:1;fill-rule:nonzero;stroke:none"
             id="path4208"
             inkscape:connector-curvature="0" /></g><g
           id="g4210"
           transform="translate(457.2305,252.9277)"><path
             d="m 0,0 -4.105,0 -22.288,25.66 0,-25.66 -4.496,0 0,33.333 3.813,0 22.58,-25.806 0,25.806 4.496,0 L 0,0 Z"
             style="fill:#ffffff;fill-opacity:1;fill-rule:nonzero;stroke:none"
             id="path4212"
             inkscape:connector-curvature="0" /></g><g
           id="g4214"
           transform="translate(483.4766,281.96)"><path
             d="m 0,0 -14.125,0 0,-10.068 13.637,0 0,-4.302 -13.637,0 0,-10.361 14.564,0 0,-4.301 -19.353,0 0,33.333 L 0,4.301 0,0 Z"
             style="fill:#ffffff;fill-opacity:1;fill-rule:nonzero;stroke:none"
             id="path4216"
             inkscape:connector-curvature="0" /></g><g
           id="g4218"
           transform="translate(504.834,278.9297)"><path
             d="m 0,0 c -2.834,2.688 -5.57,3.471 -7.818,3.471 -3.08,0 -5.28,-1.614 -5.28,-3.959 0,-6.404 14.418,-6.306 14.418,-16.911 0,-5.23 -3.959,-9.042 -9.334,-9.042 -3.617,0 -6.55,0.977 -9.336,3.079 l 0,6.06 c 2.444,-3.128 5.524,-4.839 8.797,-4.839 3.715,0 5.426,2.346 5.426,4.203 0,6.892 -14.418,7.674 -14.418,16.813 0,5.426 4.008,8.896 10.117,8.896 2.541,0 5.084,-0.783 7.428,-2.346 L 0,0 Z"
             style="fill:#ffffff;fill-opacity:1;fill-rule:nonzero;stroke:none"
             id="path4220"
             inkscape:connector-curvature="0" /></g><g
           id="g4222"
           transform="translate(540.209,290.5205)"><path
             d="m 0,0 -0.025,0.017 0,1.223 -2.073,0 -0.222,-0.686 c -1.573,-2.049 -6.86,-8.252 -15.399,-11.442 l 0.696,-2.088 c 2.644,1.032 4.914,2.213 6.878,3.43 l 0,-27.332 10.12,0 0,36.837 C -0.02,-0.03 -0.002,-0.006 0,0"
             style="fill:#ffffff;fill-opacity:1;fill-rule:nonzero;stroke:none"
             id="path4224"
             inkscape:connector-curvature="0" /></g><g
           id="g4226"
           transform="translate(489.4355,301.4155)"><path
             d="M 0,0 0.104,-0.01 0.105,-0.002 0.012,0.021 0,0 Z M -0.057,0.178 C -0.068,0.409 -0.238,0.413 -0.4,0.412 L -0.416,0.264 c 0.08,-0.024 0.127,0.037 0.094,0.123 0.06,-0.221 0.179,-0.315 0.334,-0.366 0.031,0.068 0.08,0.139 0.06,0.192 L -0.057,0.178 Z m -1.039,0.756 c 0.02,-0.047 0.065,-0.001 0.114,0.034 L -1.131,1.063 -1.096,0.934 Z M -1.848,0.207 C -1.885,0.192 -1.766,0.44 -1.84,0.411 -1.986,0.413 -2.148,0.317 -2.262,0.36 -2.338,0.32 -2.311,0.632 -2.387,0.592 -2.545,0.563 -2.982,0.319 -2.791,0.273 -2.502,0.217 -2.289,0.235 -2.021,0.188 l 0.714,0 0.149,-0.109 -0.16,0.229 C -1.389,0.432 -1.666,0.181 -1.848,0.207 m 0.516,0.955 0.002,0 -0.096,0.009 0.045,-0.112 0.049,0.103 z M -1.295,1.171 -1.33,1.162 -1.27,1.154 -1.295,1.171 Z M 1.332,5.503 C 1.145,5.567 1.025,5.776 1.055,6.091 1.377,6.096 1.395,5.816 1.332,5.503 M -5.041,1.936 C -5.133,1.901 -5.238,1.969 -5.313,2.117 -5.188,2.214 -5.104,2.086 -5.041,1.936 M 4.689,0.262 C 4.475,0.5 4.381,0.801 4.441,1.24 4.43,1.06 4.299,0.995 4.178,1.109 L 4.32,1.356 C 4.613,1.213 4.893,1.047 4.711,0.612 c 0,0 0.162,-0.042 0.242,-0.063 C 4.939,0.434 4.799,0.352 4.689,0.262 L 4.822,0.124 C 4.975,0.369 5.037,0.909 5.037,0.91 4.59,1.596 4.131,2.215 3.734,2.86 3.617,2.843 3.5,2.802 3.498,2.898 L 3.527,3.149 3.336,3.418 3.23,3.482 l -0.003,0 C 3.141,3.491 3.09,3.426 3.057,3.349 L 3.055,3.578 3.012,3.624 C 3.021,3.619 3.029,3.613 3.039,3.608 3.043,3.597 3.053,3.588 3.055,3.578 L 3.191,3.504 3.195,3.5 3.195,3.501 3.23,3.482 3.301,3.47 2.869,4.097 2.736,4.189 C 2.57,4.285 2.391,4.363 2.496,4.616 L 2.412,4.723 2.396,4.673 2.396,4.742 2.043,5.2 C 1.805,5.492 1.59,5.818 1.314,6.097 c -1.656,1.933 -3.632,3.282 -6.185,4.415 -1.406,0.571 -2.916,1.128 -4.787,0.917 -3.942,-1.011 -5.406,-4.299 -5.649,-8.652 -0.031,-1.534 1.291,-3.29 2.286,-4.235 -0.083,-0.342 -0.167,-0.664 -0.282,-0.928 -0.22,-0.573 0.069,-1.867 0.887,-2.753 1.852,-0.8 1.369,1.049 1.477,0.967 0.402,0.92 -0.022,0.655 0.355,1.477 -0.238,-0.515 -0.725,0.225 -0.041,0.737 1.006,0.845 0.275,1.364 0.734,1.44 0.137,0.015 0.18,0.115 0.274,0.199 0.853,0.055 1.746,0.802 3.07,0.65 0.332,-0.011 0.643,0.275 0.953,0.37 0.221,0.008 0.432,-0.165 0.604,-0.194 0.273,-0.044 0.525,0.012 0.779,0.092 -0.266,-0.007 -0.465,-0.049 -0.752,-0.042 -0.191,0.016 0.186,0.327 0.33,0.381 0.069,0.051 0.096,-0.263 0.162,-0.211 0.117,-0.019 0.25,0.083 0.399,0.138 0.068,0.051 0,-0.217 0.033,-0.191 0.189,0.044 0.404,0.316 0.496,0.213 l 0.193,-0.198 0.135,-0.063 0.113,0.035 0.877,0.156 0.004,0.024 c -0.154,0.023 -0.285,0.093 -0.383,0.302 0.045,-0.08 0.012,-0.149 -0.068,-0.139 l -0.014,0.149 c 0.157,0.03 0.319,0.057 0.372,-0.17 0,0 0.078,0.04 0.117,0.059 C -2.168,0.993 -2.201,0.913 -2.221,0.841 L -2.125,0.833 C -2.135,0.979 -2.268,1.21 -2.27,1.21 L -3.34,1.599 C -3.381,1.557 -3.416,1.503 -3.443,1.545 L -3.5,1.668 -3.648,1.731 -3.709,1.72 -3.711,1.718 l -0.031,-0.11 -0.065,0.09 0.077,0.017 10e-4,0 0.02,0.005 0.031,0.019 -0.353,0.1 -0.08,-0.009 C -4.207,1.809 -4.299,1.787 -4.328,1.927 l -0.063,0.02 0.006,-0.027 -0.017,0.03 -0.27,0.082 -0.539,0.162 c -1.201,0.299 -2.353,0.283 -3.676,0.127 -0.371,-0.034 -0.744,-0.104 -1.125,-0.197 -0.125,0.283 -0.215,0.631 -0.123,1.228 -0.06,-1.156 -1.564,0.163 -0.345,1.147 1.689,0.648 0.679,1.627 1.773,2.128 0.127,0.035 0.254,0.048 0.393,0.134 C -7.416,6.415 -4.947,6.51 -2.92,4.836 -2.365,4.452 -1.588,4.451 -0.961,4.23 -0.557,4.013 -0.385,3.5 -0.141,3.235 0.256,2.831 0.746,2.624 1.213,2.394 0.809,2.752 0.418,2.914 -0.045,3.28 -0.342,3.539 0.617,3.558 0.916,3.462 1.082,3.458 0.787,2.938 0.951,2.938 1.119,2.76 1.432,2.734 1.719,2.625 1.881,2.613 1.477,2.287 1.559,2.281 1.877,2.083 2.58,2.283 2.625,2.011 L 2.73,1.464 2.881,1.2 3.104,1.113 C 3.643,0.901 4.199,0.585 4.654,0.231 l 0.035,0.031 z m 1.764,-0.64 0.09,-0.087 -0.025,0.06 -0.065,0.027 z M 6.258,-0.472 c 0.051,0.071 0.113,0.125 0.193,0.096 L 6.453,-0.378 6.309,-0.241 6.258,-0.472 Z M 6.127,0.025 6.309,-0.241 c -0.008,0.1 -0.067,0.19 -0.182,0.266 M 6.582,-1.026 C 6.564,-1.123 6.686,-1.108 6.805,-1.117 L 6.668,-0.78 6.582,-1.026 Z M 4.576,-1.208 C 4.5,-1.186 4.965,-0.947 4.801,-0.903 4.531,-0.738 4.209,-0.658 4.078,-0.443 3.92,-0.406 4.316,0.052 4.156,0.091 3.896,0.262 2.938,0.442 3.189,0.126 3.561,-0.345 3.885,-0.609 4.25,-1.028 4.668,-1.301 5.049,-1.589 5.434,-1.919 5.514,-2.026 5.531,-2.153 5.555,-2.278 L 5.543,-1.72 c 0.02,0.282 -0.703,0.242 -0.967,0.512 M 7.551,-3.681 C 7.475,-3.642 7.32,-3.565 7.32,-3.565 7.572,-3.181 7.326,-2.952 7.088,-2.737 L 6.893,-2.953 c 0.087,-0.143 0.23,-0.11 0.283,0.071 -0.172,-0.432 -0.106,-0.738 0.06,-1.022 0.125,0.065 0.282,0.112 0.315,0.223 m -0.215,-0.397 0.01,0.011 -0.11,0.163 -0.041,-0.022 0.141,-0.152 z"
             style="fill:#ffffff;fill-opacity:1;fill-rule:nonzero;stroke:none"
             id="path4228"
             inkscape:connector-curvature="0" /></g><g
           id="g4230"
           transform="translate(524.5059,332.3877)"><path
             d="M 0,0 -0.002,0.04 -0.662,0.302 -0.703,0.187 0,0 Z m -15.283,2.944 c 0.443,0.254 0.763,0.614 1.113,0.935 -0.402,-0.12 -0.785,-0.462 -1.113,-0.935 m 1.984,1.681 -0.18,-0.216 0.458,0.325 -0.278,-0.109 z m 0.031,-0.757 c -0.238,0.116 -0.418,0.269 -0.218,0.534 l 0.007,0.007 -0.691,-0.53 c 0.316,0.062 0.623,0.053 0.902,-0.011 m 8.596,-25.737 c -0.957,0.256 -0.932,1.135 -0.855,2.038 0.638,-0.285 0.974,-1.116 0.855,-2.038 M -15.455,-4.25 c 0.014,-0.175 0.035,-0.348 0.059,-0.52 l -0.493,-0.369 c -0.453,0.906 -0.896,2.134 0.323,2.857 0.007,-0.007 -0.258,0.48 -0.334,0.732 0.203,0.16 0.449,0.139 0.699,0.091 -0.201,-0.752 -0.287,-1.477 -0.281,-2.179 -0.141,-0.291 -0.307,-0.598 -0.518,-0.934 0.174,0.316 0.385,0.409 0.545,0.322 M -1.871,3.208 C -2.098,3.23 -2.352,3.355 -2.525,3.585 -2.207,3.64 -2.008,3.449 -1.871,3.208 M -0.965,1.62 c 0.104,0.01 0.16,-0.153 0.227,-0.281 -0.27,-0.013 -0.561,-0.03 -0.561,-0.03 -0.027,0.11 -0.068,0.201 -0.105,0.298 0.164,0.017 0.33,0.023 0.439,0.013 m 2.729,-19.89 c -1.485,1.557 -2.496,3.693 -3.741,4.905 -1.767,1.772 -4.492,3.159 -5.711,3.494 1.211,-0.791 3.446,-1.911 5.395,-3.569 1.385,-1.182 -2.17,-0.397 -3.244,0.057 -0.574,0.07 -0.197,1.739 -0.787,1.819 -0.971,0.758 -1.781,0.681 -2.658,0.925 -0.483,0.007 0.505,0.982 0.273,0.975 -0.531,0.306 -1.52,0.245 -2.207,0.362 -0.022,0.164 -0.031,0.329 -0.014,0.493 0.246,1.762 -1.047,3.307 -1.226,4.868 0.347,-0.19 0.613,-0.202 0.574,0.124 -0.143,1.109 -0.248,1.742 0.102,2.466 0,0.101 0.011,0.203 0.031,0.306 0.533,0.772 1.213,1.516 2.049,2.066 0.379,0.037 0.73,-0.085 1.068,-0.184 -0.234,0.121 -0.488,0.248 -0.758,0.377 0.938,0.538 2.053,0.828 3.365,0.654 0.795,-0.066 1.6,0.128 2.375,0.064 0.299,-0.045 0.582,-0.168 0.85,-0.3 0.549,-0.589 1.127,-1.043 1.838,-1.33 0.078,0.198 0.183,0.397 0.234,0.593 C -0.277,0.858 -0.125,0.814 0.025,0.784 -0.131,0.841 -0.277,0.893 -0.42,0.941 -0.408,1.004 -0.4,1.067 -0.404,1.129 -0.17,1.067 0.088,1.065 0.363,1.02 0.529,1.027 0.355,0.726 0.438,0.73 0.873,0.578 1.402,0.793 1.617,0.565 L 2.086,0.118 2.398,-0.103 2.66,-0.163 c 0.635,-0.141 1.326,-0.398 1.963,-0.659 l 0.01,0.031 C 4.289,-0.598 3.994,-0.355 3.773,0.052 3.877,-0.112 3.807,-0.178 3.629,-0.083 L 3.592,0.143 c 0.351,-0.103 0.691,-0.234 0.826,-0.625 0,0 0.168,-0.021 0.252,-0.032 C 4.734,-0.617 4.668,-0.702 4.633,-0.791 L 4.84,-0.901 C 4.807,-0.668 4.504,-0.191 4.504,-0.191 3.678,0.375 2.879,0.881 2.094,1.366 1.998,1.343 1.916,1.299 1.854,1.379 L 1.723,1.592 1.379,1.804 1.242,1.849 1.238,1.848 C 1.154,1.85 1.148,1.792 1.164,1.725 L 1.02,1.915 0.949,1.945 0.986,1.936 C 0.996,1.929 1.01,1.923 1.02,1.915 l 0.171,-0.051 0.006,-0.002 0,0 L 1.242,1.849 1.314,1.844 0.51,2.3 0.322,2.357 C 0.104,2.411 -0.115,2.464 -0.172,2.676 l -0.144,0.081 0.015,-0.042 -0.043,0.056 -0.636,0.3 c -0.42,0.185 -0.831,0.417 -1.29,0.561 -2.814,1.135 -6.107,1.383 -9.113,-0.422 -1.541,-0.964 -2.904,-2.328 -3.654,-4.114 -0.016,-0.043 -0.024,-0.086 -0.037,-0.129 -0.799,-0.278 -1.731,-1.262 -1.672,-1.309 -0.447,-3.102 0.5,-6.016 1.945,-8.426 0.338,-0.039 0.672,0.015 0.688,-0.319 -0.063,-0.314 -0.035,-0.569 0.029,-0.802 l 0.746,-0.991 0.365,-0.263 0.012,0 c 0.225,-0.058 0.334,0.084 0.398,0.278 0.014,-0.023 0.032,-0.045 0.047,-0.068 0.016,-0.2 0.065,-0.389 0.17,-0.558 0.149,-0.081 0.289,-0.172 0.426,-0.27 -0.117,0.065 -0.242,0.127 -0.367,0.189 -0.02,0.027 -0.043,0.052 -0.059,0.081 l -0.627,0.348 -0.224,0.072 c 0.574,-0.766 1.304,-1.367 1.961,-2.071 0.183,-0.112 0.365,-0.237 0.513,-0.292 0.61,-0.254 1.235,-0.526 1.116,-1.291 l 0.339,-0.33 0.008,0.152 0.053,-0.209 1.352,-1.471 c 0.873,-0.961 1.667,-2.008 2.419,-3.085 2.329,-3.492 4.123,-7.23 4.291,-10.77 0.211,-3.642 -2.089,-5.666 -4.691,-4.553 -3.201,1.389 -6.139,5.37 -8.248,9.126 -1.738,3.13 -3.654,6.034 -5.461,9.028 l 0.045,-0.032 c 0,0 -5.537,16.028 -15.619,17.159 -1.815,0.204 -3.465,0.304 -4.979,0.316 0.041,0.597 -0.338,1.096 -0.67,1.576 l 0.077,-0.272 c 0.181,-0.294 0.24,-0.313 0.109,-0.027 0.248,-0.41 0.342,-0.841 0.418,-1.276 -4.043,0.026 -7.057,-0.594 -9.346,-1.678 -0.271,0.119 -0.554,0.216 -0.845,0.286 -4.036,1.203 -2.54,4.512 -2.54,4.512 -11.554,-10.24 -12.443,-17.41 -11.72,-21.093 0.16,-1.078 0.523,-2.028 1.099,-2.78 0.036,-0.05 0.059,-0.079 0.059,-0.079 l 0.004,0.006 c 0.269,-0.338 0.574,-0.642 0.932,-0.891 3.207,-2.24 8.771,0.176 12.554,5.391 4.457,-1.695 5.117,1.788 10.27,0.521 -3.91,0.699 2.468,4.24 3.949,-0.01 0.441,-2.937 0.381,-3.224 1.904,-5.001 1.844,-2.435 4.703,-5.726 6.225,-8.952 0.797,-1.693 2.176,-3.126 3.537,-4.946 3.494,-4.853 6.576,-10.133 17.004,-12.504 5.719,-1.091 12.924,2.752 15.027,8.351 2.299,5.476 1.334,9.969 0.367,13.794 -1.357,4.041 -4.263,6.258 -6.552,8.196 m 7.65,13.838 -0.016,-0.027 0.196,-0.136 0.002,0.011 -0.182,0.152 z m 0.094,0.265 c -0.08,0.03 -0.24,0.088 -0.24,0.087 -0.049,0.428 -0.391,0.597 -0.709,0.776 L 8.553,-3.538 c 0.16,-0.126 0.244,-0.074 0.168,0.106 0.156,-0.433 0.402,-0.729 0.693,-1 0.053,0.08 0.137,0.149 0.094,0.265 M 5.992,-0.872 6.311,-1.094 C 6.238,-1.007 6.137,-0.93 5.992,-0.872 m 0.528,-0.323 0.001,-10e-4 -0.21,0.102 0.113,-0.209 c -0.006,0.069 0.01,0.124 0.096,0.108 m 0.074,-0.016 -0.073,0.015 0.131,-0.066 -0.058,0.051 z m -19.576,4.965 0.361,-0.144 c -0.072,0.045 -0.211,0.091 -0.361,0.144 m 3.017,1.514 c -0.519,-0.021 -1.056,-0.112 -1.586,-0.176 0.287,-0.047 0.576,-0.154 0.86,-0.351 0.343,-0.111 0.482,0.253 0.726,0.527 m 17.248,-7.092 -0.328,0.29 0.092,-0.235 c 0.049,-0.09 0.137,-0.062 0.236,-0.055 m -3,0.832 C 3.939,-0.873 2.963,-0.764 3.398,-1.039 4.063,-1.434 4.535,-1.638 5.123,-2.014 5.664,-2.236 6.189,-2.456 6.721,-2.73 l 0.34,-0.329 -0.387,0.529 c -0.178,0.261 -0.731,0.159 -1.151,0.375 -0.082,0.012 0.143,0.277 -0.021,0.304 -0.336,0.131 -0.664,0.183 -0.92,0.375 -0.164,0.02 -0.133,0.464 -0.299,0.484 m -47.478,3.413 c -0.205,0.148 -0.448,0.225 -0.672,0.336 l 0.322,-0.199 0.35,-0.137 z m -1.576,0.656 0.207,-0.14 c -0.038,0.027 -0.139,0.1 -0.207,0.14 m -0.34,0.155 c -0.176,0.069 -0.385,0.138 -0.633,0.201 l 0.633,-0.201 z m 0.49,-0.133 -0.111,0.028 0.23,-0.083 -0.119,0.055 z m 5.166,0.822 c -0.531,0.607 0.543,-0.283 0.771,-0.791 0.014,-0.041 0.026,-0.092 0.038,-0.143 -0.098,0.069 -0.194,0.121 -0.29,0.177 -0.127,0.247 -0.289,0.498 -0.519,0.757 m 0.9,-1.815 c -0.035,-0.062 -0.068,-0.123 -0.064,-0.17 l -0.004,0.033 c -0.014,0.075 -0.016,0.151 -0.016,0.226 0.03,-0.028 0.055,-0.06 0.084,-0.089 m -7.703,1.712 c 0.67,0.109 1.319,0.344 2.033,0.226 -0.306,0.027 -0.271,0.067 0.079,0.082 l 0.271,-0.067 c -0.611,-0.013 -1.193,-0.148 -1.77,-0.177 0,0 -0.25,-0.083 -0.373,-0.123 -0.191,-0.017 -0.193,0.029 -0.24,0.059 l -0.394,-0.089 c 0.3,-0.014 1.187,0.065 1.187,0.065 1.664,0.332 3.33,0.24 4.781,-0.318 0.121,-0.017 0.215,-0.018 0.358,-0.09 l 0.316,-0.188 0.576,-0.358 0.211,-0.116 0.006,-0.001 c 0.117,-0.055 0.1,-0.018 0.045,0.041 l 0.262,-0.263 c 0.056,-0.048 0.117,-0.095 0.178,-0.143 -0.039,0.033 -0.082,0.065 -0.125,0.097 -0.018,0.015 -0.039,0.03 -0.053,0.046 l -0.09,0.064 -0.156,0.123 0.07,-0.061 -0.137,0.097 -0.103,0.048 c 0.234,-0.164 0.453,-0.349 0.658,-0.545 0.002,-0.097 0.002,-0.193 0.025,-0.287 l 0.02,-0.17 0,-0.009 c 0.088,0.033 0.193,0.071 0.016,0.037 l -0.012,0.13 c 0.01,-0.057 0.086,-0.09 0.295,-0.071 0.015,-0.018 0.033,-0.033 0.047,-0.05 -0.168,-0.038 -0.28,-0.062 -0.342,-0.074 l 0.002,-0.006 c 0.127,0.029 0.238,0.055 0.34,0.079 0.023,-0.027 0.052,-0.051 0.074,-0.079 0.058,-0.172 0.432,-0.014 0.254,0.091 -0.002,0.021 -0.004,0.042 -0.006,0.064 0,0.011 -0.002,0.021 -0.002,0.032 0.084,0.017 0.18,0.039 0.285,0.064 -0.105,0.118 -0.207,0.224 -0.31,0.326 -0.006,0.204 -0.012,0.389 -0.039,0.525 l -0.086,0.277 0.005,-0.057 -0.021,0.106 c -0.086,0.407 -0.363,0.726 -0.561,1.08 -0.429,0.566 -0.968,1.043 -1.562,1.46 0.18,-0.153 0.377,-0.383 0.439,-0.44 -0.152,0.039 -0.601,0.5 -0.746,0.541 0.043,0.081 0.157,0.021 0.283,-0.082 -0.066,0.045 -0.121,0.099 -0.185,0.142 1.57,-0.462 4.496,-1.512 5.84,-3.47 0.345,-0.373 0.64,-0.794 0.922,-1.221 -0.018,-0.104 -0.034,-0.209 -0.057,-0.313 l -0.02,-0.118 c 0.571,0.051 -0.832,-0.078 0.338,0.028 l 0.143,-0.24 c 0.258,-0.002 -0.428,-0.271 0.605,-0.055 l 0.051,0.245 c 0.006,0.041 0.016,0.082 0.026,0.124 0.127,0.012 0.253,0.023 0.404,0.037 l -0.002,0.004 -0.006,0.01 -0.01,0.018 -0.021,0.037 -0.039,0.074 -0.164,0.274 -0.057,0.087 c 0.016,0.107 0.025,0.215 0.018,0.327 0.046,0.591 -0.071,1.193 -0.287,1.763 0.857,-0.699 1.58,-1.573 2.224,-2.462 0.377,-0.188 0.371,-0.581 0.518,-0.893 -0.076,-0.002 -0.112,-0.003 0,-0.001 0.142,-0.301 0.425,-0.525 1.343,-0.406 0.067,0.148 0.11,0.294 0.153,0.44 0.047,0.001 0.084,0.002 0.133,0.003 l -0.01,0.017 -0.02,0.033 -0.041,0.067 -0.013,0.024 c 0.142,0.557 0.148,1.101 0.156,1.632 -0.002,0.252 -0.024,0.495 -0.041,0.739 0.226,-0.088 0.437,-0.185 0.474,-0.394 0.957,-0.839 1.883,-1.706 2.653,-2.707 1.584,-1.958 2.771,-4.259 3.418,-6.83 0.586,-1.94 1.211,-5.679 1.144,-7.644 0.149,-2.597 0.791,-1.327 0.862,-1.185 0.545,1.598 0.394,2.91 0.089,6.078 0.116,-1.449 -0.609,2.168 -1.099,4.22 -0.576,3.295 -3.611,7.209 -6.826,9.653 l -0.608,0.484 -0.314,0.244 -0.02,0.016 -0.009,0.008 -0.006,0.003 0,0 c 1.154,0.783 -1.575,-1.064 -1.293,-0.875 l 0,-10e-4 0,-0.002 0.008,-0.04 0.017,-0.084 0.031,-0.18 c 0.071,-0.431 0.135,-0.895 0.155,-1.368 l -0.01,0.015 c -0.961,1.21 -2,2.406 -3.594,3.203 l -0.144,0.077 -0.073,0.038 -0.009,0.005 -0.004,0.002 c 0.802,1.359 -1.098,-1.849 -0.903,-1.519 l 0.01,-0.008 0.117,-0.119 0.242,-0.327 c 0.016,-0.023 0.026,-0.05 0.04,-0.074 -0.399,0.431 -0.821,0.847 -1.288,1.236 -1.466,1.067 -3.046,1.763 -4.607,1.748 l -0.42,0.052 -0.213,0.029 -0.105,0.015 -0.053,0.007 -0.014,0.002 -0.002,0 c -0.134,-0.525 0.303,1.177 -0.304,-1.179 l 0.002,0 0.002,-0.001 0.003,-0.003 0.018,-0.009 0.566,-0.399 c 0.366,-0.29 0.684,-0.602 0.911,-0.887 0.224,-0.246 0.394,-0.502 0.529,-0.759 -0.58,0.323 -1.109,0.459 -1.518,0.626 -0.381,0.178 -0.728,0.331 -1.09,0.391 l -0.695,0.131 -0.465,0.042 c -1.131,-0.059 -2.39,-0.2 -3.513,-0.564 l 0.019,-0.009 z m 1.522,-0.689 0.004,-0.002 -0.379,0.105 0.34,-0.155 c -0.069,0.045 -0.096,0.077 0.035,0.052 m -2,-0.081 0.818,-0.188 c 0.936,-0.234 1.846,-0.492 2.723,-0.957 l 0.672,-0.431 -0.885,0.624 c -0.44,0.269 -1.082,0.373 -1.842,0.6 -0.121,0.023 -0.049,0.152 -0.297,0.2 -0.474,0.483 -1.297,-0.538 -1.392,1.04 0.253,0.083 0.697,0.006 0.943,0.088 0.58,0.214 2.152,0.561 1.213,0.466 -0.694,-0.144 -1.262,-0.272 -1.813,-0.396 L -47.006,4 c -0.092,-1.794 0.19,-0.532 0.27,-0.952 m 9.082,-0.918 -0.33,0.343 0.345,-0.384 0.053,-0.071 c 0.006,0.002 0.008,0.003 0.016,0.005 l -0.084,0.107 z m 0.08,-0.129 0.015,-0.021 c 0.2,0.052 0.084,0.035 -0.015,0.021 m 0.015,-0.021 c -0.078,-0.021 -0.201,-0.051 -0.396,-0.098 0.117,0.028 0.246,0.058 0.398,0.095 l -0.002,0.003 z m -0.015,0.021 -0.012,0.017 c -0.129,-0.035 -0.066,-0.028 0.012,-0.017 m -1.045,-0.268 -0.004,0.028 c -0.07,-0.028 -0.127,-0.052 0.004,-0.028"
             style="fill:#ffffff;fill-opacity:1;fill-rule:nonzero;stroke:none"
             id="path4232"
             inkscape:connector-curvature="0" /></g></g></g></g></svg>