<?xml version="1.0" encoding="UTF-8" standalone="no"?>
<!-- Generator: Adobe Illustrator 16.0.0, SVG Export Plug-In . SVG Version: 6.00 Build 0)  -->

<svg
   xmlns:dc="http://purl.org/dc/elements/1.1/"
   xmlns:cc="http://creativecommons.org/ns#"
   xmlns:rdf="http://www.w3.org/1999/02/22-rdf-syntax-ns#"
   xmlns:svg="http://www.w3.org/2000/svg"
   xmlns="http://www.w3.org/2000/svg"
   xmlns:sodipodi="http://sodipodi.sourceforge.net/DTD/sodipodi-0.dtd"
   xmlns:inkscape="http://www.inkscape.org/namespaces/inkscape"
   version="1.1"
   id="Calque_1"
   x="0px"
   y="0px"
   width="258.599"
   height="258.60199"
   viewBox="0 0 258.599 258.602"
   enable-background="new 0 0 470.137 493.067"
   xml:space="preserve"
   inkscape:version="0.48.4 r9939"
   sodipodi:docname="LOGO SIUAPS CMJN negatif copie.svg"><metadata
     id="metadata3288"><rdf:RDF><cc:Work
         rdf:about=""><dc:format>image/svg+xml</dc:format><dc:type
           rdf:resource="http://purl.org/dc/dcmitype/StillImage" /><dc:title></dc:title></cc:Work></rdf:RDF></metadata><defs
     id="defs3286" /><sodipodi:namedview
     pagecolor="#000000"
     bordercolor="#666666"
     borderopacity="1"
     objecttolerance="10"
     gridtolerance="10"
     guidetolerance="10"
     inkscape:pageopacity="1"
     inkscape:pageshadow="2"
     inkscape:window-width="1916"
     inkscape:window-height="1041"
     id="namedview3284"
     showgrid="true"
     fit-margin-top="0"
     fit-margin-left="0"
     fit-margin-right="0"
     fit-margin-bottom="0"
     inkscape:zoom="2.537694"
     inkscape:cx="157.034"
     inkscape:cy="90.338993"
     inkscape:window-x="0"
     inkscape:window-y="37"
     inkscape:window-maximized="0"
     inkscape:current-layer="g3202"><inkscape:grid
       type="xygrid"
       id="grid3290"
       empspacing="5"
       visible="true"
       enabled="true"
       snapvisiblegridlinesonly="true"
       originx="-77.822px"
       originy="-155.74498px" /></sodipodi:namedview><g
     id="g3202"
     transform="translate(-77.822001,-78.72)"><g
       id="g3204"><g
         id="g3206"><path
           d="m 336.421,208.019 c 0,71.412 -57.887,129.303 -129.299,129.303 -71.409,0 -129.3,-57.891 -129.3,-129.303 0,-71.41 57.891,-129.299 129.3,-129.299 71.412,0 129.299,57.888 129.299,129.299"
           id="path3208"
           inkscape:connector-curvature="0"
           style="fill:#ffffff" /><path
           d="m 173.863,172.605 c 0.098,-1.115 0.595,-9.194 -5.07,-14.641 -4.24,-4.078 -10.474,-5.423 -18.521,-4.004 -2.446,0.432 -5.728,0.611 -7.465,-0.98 -1.816,-1.662 -1.66,-4.839 -1.66,-4.871 l -0.064,0.006 0.002,-0.19 0.625,-2.521 1.208,-2.373 1.709,-2.064 2.097,-1.619 2.338,-1.057 2.416,-0.428 2.338,0.234 2.088,0.875 1.71,1.462 1.215,1.951 0.624,2.3 v 2.729 l 14.411,-2.54 -0.003,-2.97 -12.642,2.23 12.212,-5.529 -0.746,-2.74 -12.212,5.527 10.95,-8.449 -1.441,-2.322 -10.955,8.455 8.946,-10.8 -2.038,-1.743 -8.944,10.8 6.325,-12.408 -2.496,-1.047 -6.32,12.406 3.271,-13.171 -2.786,-0.279 -3.273,13.171 v -13.039 l -2.881,0.509 v 13.039 l -3.273,-12.017 -2.786,1.262 3.273,12.016 -6.321,-10.18 -2.498,1.931 6.318,10.171 -8.934,-7.64 -2.041,2.462 8.935,7.64 -10.944,-4.585 -1.441,2.83 10.953,4.587 -12.215,-1.222 -0.746,3.004 12.207,1.222 -3.712,0.656 -1.693,0.162 -7.229,0.582 c -0.03,0.313 -0.104,1.43 -0.004,2.983 v 0.817 l 0.066,-0.011 c 0.327,3.319 1.502,8.118 5.276,11.723 2.921,2.788 8.46,5.754 18.255,4.026 2.555,-0.45 5.966,-0.656 7.693,0.923 1.514,1.381 1.436,3.896 1.441,3.894 v -0.004 l 0.046,-0.004 0.003,2.137 -0.625,2.52 -1.209,2.374 -1.709,2.064 -2.099,1.621 -2.338,1.057 -2.416,0.425 -2.336,-0.232 -2.09,-0.875 -1.711,-1.464 -1.215,-1.95 -0.625,-2.299 v -2.729 l -14.408,2.54 v 2.972 l 12.645,-2.231 -12.212,5.528 0.744,2.74 12.215,-5.527 -10.951,8.449 1.44,2.322 10.956,-8.456 -8.945,10.802 2.04,1.743 8.94,-10.798 -6.323,12.408 2.497,1.047 6.321,-12.408 -3.273,13.171 2.786,0.278 3.273,-13.17 v 13.039 l 2.881,-0.509 v -13.037 l 3.273,12.016 2.787,-1.26 -3.272,-12.018 6.32,10.177 2.496,-1.927 -6.318,-10.173 8.938,7.641 2.038,-2.463 -8.935,-7.64 10.944,4.587 1.441,-2.831 -10.95,-4.588 12.212,1.222 0.749,-3.002 -12.209,-1.223 12.639,-2.227 v -0.98 z"
           id="path3250"
           inkscape:connector-curvature="0"
           style="fill:#0098a1" /><path
           d="m 271.238,285.525 c 0.099,-1.116 0.595,-9.195 -5.068,-14.643 -4.241,-4.077 -10.472,-5.421 -18.521,-4.005 -2.447,0.434 -5.727,0.613 -7.464,-0.98 -1.816,-1.66 -1.66,-4.837 -1.66,-4.869 l -0.062,0.007 -0.003,-0.19 0.626,-2.521 1.206,-2.375 1.71,-2.063 2.098,-1.62 2.341,-1.056 2.416,-0.429 2.334,0.233 2.09,0.877 1.712,1.461 1.214,1.951 0.626,2.301 v 2.729 l 14.406,-2.539 v -2.973 l -12.642,2.229 12.213,-5.525 -0.747,-2.743 -12.214,5.529 10.95,-8.449 -1.44,-2.322 -10.954,8.456 8.942,-10.802 -2.036,-1.744 -8.946,10.8 6.326,-12.407 -2.495,-1.049 -6.322,12.405 3.273,-13.169 -2.783,-0.279 -3.274,13.171 v -13.036 l -2.885,0.508 v 13.036 l -3.274,-12.015 -2.78,1.26 3.272,12.019 -6.324,-10.179 -2.497,1.929 6.319,10.173 -8.938,-7.641 -2.039,2.463 8.936,7.638 -10.945,-4.586 -1.441,2.832 10.951,4.587 -12.213,-1.222 -0.748,3.004 12.208,1.22 -3.714,0.655 -1.692,0.163 -7.228,0.582 c -0.031,0.314 -0.105,1.429 -0.004,2.985 v 0.816 l 0.064,-0.011 c 0.329,3.32 1.503,8.117 5.277,11.722 2.921,2.791 8.46,5.755 18.254,4.028 2.556,-0.45 5.968,-0.658 7.696,0.92 1.512,1.382 1.433,3.896 1.438,3.896 v -0.005 l 0.051,-0.003 v 2.136 l -0.626,2.521 -1.209,2.372 -1.707,2.064 -2.101,1.621 -2.334,1.056 -2.416,0.426 -2.341,-0.231 -2.089,-0.877 -1.71,-1.46 -1.215,-1.952 -0.623,-2.301 v -2.729 l -14.41,2.539 v 2.973 l 12.645,-2.23 -12.213,5.53 0.748,2.74 12.213,-5.529 -10.951,8.45 1.441,2.319 10.956,-8.453 -8.947,10.799 2.039,1.745 8.943,-10.799 -6.325,12.406 2.497,1.049 6.321,-12.407 -3.27,13.172 2.78,0.278 3.274,-13.17 0.003,13.036 2.882,-0.508 v -13.038 l 3.274,12.017 2.783,-1.26 -3.273,-12.019 6.322,10.177 2.498,-1.929 -6.32,-10.168 8.938,7.639 2.039,-2.463 -8.936,-7.64 10.944,4.585 1.441,-2.83 -10.951,-4.588 12.214,1.221 0.748,-3.002 -12.206,-1.222 12.634,-2.228 v -0.973 z"
           id="path3252"
           inkscape:connector-curvature="0"
           style="fill:#0098a1" /><path
           d="m 196.968,132.638 c -0.01,-4.092 -3.23,-6.841 -7.206,-6.141 -3.972,0.7 -7.191,4.584 -7.202,8.681 l 0,0 v 0.017 16.225 53.722 l 2.469,-0.437 v -53.72 l 1.51,-0.267 v 53.72 l 2.471,-0.435 v -53.722 l 1.508,-0.266 v 53.72 l 2.471,-0.435 v -53.721 l 1.508,-0.266 10e-4,53.72 2.471,-0.435 v -53.722 -16.225 -0.017 h -0.001 z"
           id="path3254"
           inkscape:connector-curvature="0"
           style="fill:#0098a1" /><path
           d="m 254.916,106.325 c -0.009,-4.097 -3.227,-6.848 -7.204,-6.147 -3.977,0.701 -7.196,4.588 -7.204,8.688 l 0,0 v 44.13 0.254 2.476 l -0.627,2.521 -1.206,2.372 -1.709,2.063 -2.1,1.62 -2.337,1.059 -2.414,0.425 -2.338,-0.233 -2.088,-0.874 -1.713,-1.462 -1.213,-1.954 -0.627,-2.299 v -2.472 -0.258 -51.548 l -2.47,0.436 0.002,51.548 -1.508,0.267 -0.003,-51.548 -2.468,0.436 v 51.546 l -1.51,0.268 V 106.09 l -2.472,0.437 v 51.548 l -1.508,0.266 v -51.548 l -2.471,0.435 v 51.549 0.257 2.713 l 12.645,-2.229 -12.212,5.528 0.746,2.742 12.213,-5.53 -10.95,8.451 1.442,2.32 10.954,-8.454 -8.946,10.8 2.039,1.743 8.945,-10.798 -6.326,12.408 2.497,1.049 6.321,-12.409 -3.271,13.171 2.783,0.279 3.273,-13.169 v 13.038 l 2.883,-0.508 v -13.041 l 3.273,12.019 2.786,-1.261 -3.274,-12.018 6.323,10.18 2.497,-1.93 -6.319,-10.171 8.937,7.639 2.04,-2.463 -8.935,-7.638 10.941,4.587 1.444,-2.831 -10.95,-4.588 12.211,1.221 0.747,-3.004 -12.208,-1.22 12.64,-2.227 v -2.721 -44.387 l -0.001,0 z"
           id="path3256"
           inkscape:connector-curvature="0"
           style="fill:#0098a1" /><path
           d="m 173.629,265.924 c -1.276,0.225 -2.459,0.791 -3.514,1.553 l 10.943,-48.635 -14.792,2.608 -16.045,70.162 c -0.96,4.184 1.417,7.822 5.313,8.126 0.584,0.046 1.169,0.015 1.744,-0.088 3.263,-0.575 6.227,-3.382 7.044,-6.936 l 3.091,-13.469 c 1.364,1.792 3.639,2.73 6.218,2.276 4.178,-0.738 7.565,-4.826 7.565,-9.134 -0.002,-4.307 -3.389,-7.201 -7.567,-6.463"
           id="path3258"
           inkscape:connector-curvature="0"
           style="fill:#0098a1" /><polygon
           points="194.498,293.786 196.97,293.348 196.97,215.986 194.498,216.423 "
           id="polygon3260"
           style="fill:#0098a1" /><polygon
           points="192.988,294.051 192.989,216.688 190.519,217.124 190.519,294.486 "
           id="polygon3262"
           style="fill:#0098a1" /><polygon
           points="189.011,294.752 189.011,217.391 186.54,217.827 186.54,295.189 "
           id="polygon3264"
           style="fill:#0098a1" /><polygon
           points="185.032,295.455 185.032,218.092 182.561,218.528 182.561,295.89 "
           id="polygon3266"
           style="fill:#0098a1" /><polygon
           points="237.509,192.597 228.572,203.387 234.893,190.99 232.393,189.941 226.07,202.346 229.345,189.179 226.561,188.898 223.287,202.063 223.289,189.033 220.405,189.539 220.403,204.396 223.051,203.929 225.389,204.163 227.484,205.037 229.195,206.498 230.407,208.448 231.034,210.747 231.034,213.238 230.407,215.757 229.2,218.124 227.488,220.191 225.389,221.814 223.051,222.87 220.405,223.337 220.403,238.192 223.284,237.686 223.287,224.646 226.561,236.663 229.345,235.403 226.07,223.386 232.393,233.562 234.89,231.638 228.564,221.457 237.509,229.103 239.548,226.643 230.605,218.997 241.556,223.587 243.002,220.76 232.049,216.172 244.264,217.392 245.009,214.391 232.795,213.168 245.44,210.939 245.44,207.966 232.795,210.195 245.009,204.668 244.264,201.927 232.049,207.456 243,199.007 241.556,196.686 230.611,205.131 239.548,194.339 "
           id="polygon3268"
           style="fill:#0098a1" /><path
           d="m 211.834,191.049 c -3.976,0.701 -7.197,4.588 -7.203,8.686 l 0,0 v 33.813 c 0.003,4.101 3.227,6.855 7.203,6.154 3.979,-0.702 7.203,-4.594 7.205,-8.695 v -33.812 l 0,0 c -0.007,-4.096 -3.229,-6.846 -7.205,-6.146"
           id="path3270"
           inkscape:connector-curvature="0"
           style="fill:#0098a1" /><polygon
           points="207.102,269.24 207.102,241.737 204.631,242.173 204.631,269.675 "
           id="polygon3272"
           style="fill:#0098a1" /><polygon
           points="211.081,268.538 211.081,241.036 208.61,241.47 208.61,268.974 "
           id="polygon3274"
           style="fill:#0098a1" /><polygon
           points="215.059,267.837 215.059,240.333 212.588,240.77 212.588,268.271 "
           id="polygon3276"
           style="fill:#0098a1" /><polygon
           points="219.039,267.135 219.039,239.632 216.57,240.067 216.57,267.569 "
           id="polygon3278"
           style="fill:#0098a1" /></g></g></g></svg>